<?xml version="1.0" standalone="no"?>
<!DOCTYPE svg PUBLIC "-//W3C//DTD SVG 20010904//EN"
 "http://www.w3.org/TR/2001/REC-SVG-20010904/DTD/svg10.dtd">
<svg version="1.0" xmlns="http://www.w3.org/2000/svg"
 width="560.000000pt" height="560.000000pt" viewBox="0 0 560.000000 560.000000"
 preserveAspectRatio="xMidYMid meet">
<metadata>
Created by potrace 1.14, written by Peter Selinger 2001-2017
</metadata>
<g transform="translate(0.000000,560.000000) scale(0.100000,-0.100000)"
fill="#000000" stroke="none">
<path d="M2204 4540 c-193 -50 -338 -178 -393 -343 l-22 -64 -97 -6 c-186 -11
-374 -96 -504 -229 -176 -180 -235 -496 -143 -761 92 -267 306 -411 653 -443
69 -6 73 -8 67 -28 -39 -134 -47 -370 -19 -537 46 -269 183 -529 394 -753 109
-115 214 -192 354 -261 143 -71 196 -81 318 -60 454 78 799 393 957 874 34
104 71 281 71 341 l0 38 113 0 c129 -1 219 17 312 63 166 82 272 222 307 409
13 71 5 238 -16 315 -44 164 -148 299 -296 385 -41 24 -77 45 -78 46 -2 1 8
22 21 46 90 155 89 345 -4 489 -32 51 -117 129 -191 175 -87 55 -235 94 -358
94 -159 0 -314 -77 -484 -239 -33 -32 -60 -51 -63 -44 -2 6 -21 47 -42 90 -66
135 -143 223 -273 312 -140 94 -411 137 -584 91z m384 -215 c91 -22 159 -60
228 -129 121 -122 167 -265 191 -596 4 -58 8 -108 9 -112 1 -5 2 -17 3 -28 2
-30 18 -24 36 13 28 60 274 364 351 435 42 39 108 88 148 108 59 31 83 38 147
42 66 4 84 1 131 -20 92 -42 153 -120 165 -208 7 -51 -28 -155 -77 -228 -77
-115 -157 -177 -435 -337 -208 -120 -246 -146 -362 -257 -99 -95 -119 -103
-158 -63 -32 31 -31 51 8 171 28 88 31 108 27 179 -6 91 -13 84 -30 -30 -21
-139 -47 -253 -64 -280 -9 -13 -27 -27 -41 -31 -46 -12 -68 15 -114 142 -86
237 -171 382 -321 549 -147 163 -212 285 -227 420 -13 122 62 225 188 259 70
19 119 19 197 1z m-593 -495 c123 -28 196 -65 295 -151 209 -183 321 -312 394
-457 34 -67 86 -222 86 -256 0 -37 -26 -73 -62 -85 -34 -12 -60 -2 -173 64
-133 78 -316 133 -535 160 -266 33 -381 74 -466 168 -159 177 -47 497 196 561
76 20 160 19 265 -4z m1966 -586 c210 -62 297 -193 259 -387 -22 -111 -69
-174 -157 -207 -92 -34 -211 -21 -401 44 -139 48 -257 68 -417 72 -177 4 -198
13 -203 82 -3 39 1 47 50 98 98 104 240 194 378 239 213 70 384 91 491 59z
m-1296 -444 c72 -22 190 -46 264 -55 30 -3 70 -13 90 -22 20 -8 67 -24 104
-34 156 -44 264 -124 313 -232 24 -54 28 -74 27 -152 -2 -276 -169 -533 -434
-670 -99 -51 -216 -85 -293 -85 -42 0 -65 8 -135 48 -143 80 -278 221 -361
375 -83 153 -115 292 -108 468 4 103 7 122 35 182 40 85 111 157 184 186 47
18 66 20 154 15 54 -3 126 -14 160 -24z"/>
</g>
</svg>
